<?xml version="1.0" encoding="utf-8"?>
<!-- Generator: Adobe Illustrator 22.0.0, SVG Export Plug-In . SVG Version: 6.00 Build 0)  -->
<svg version="1.1" id="图层_1" xmlns="http://www.w3.org/2000/svg" xmlns:xlink="http://www.w3.org/1999/xlink" x="0px" y="0px"
	 viewBox="0 0 20 20" style="enable-background:new 0 0 20 20;" xml:space="preserve">
<style type="text/css">
	.st0{fill:#666666;}
</style>
<path class="st0" d="M18.2,7.8c0.2-0.3,0.1-0.6-0.1-0.9c-0.3-0.2-0.6-0.2-0.9,0.1c0,0-3.4,4.1-7.4,4.1c-3.9,0-7.4-4.1-7.4-4.1
	C2.1,6.8,1.7,6.8,1.5,7C1.3,7.2,1.2,7.6,1.4,7.9c0.1,0.1,0.8,0.9,1.9,1.8l-1.6,1.6c-0.2,0.2-0.2,0.6,0,0.9c0.1,0.1,0.2,0.2,0.4,0.2
	c0.2,0,0.3-0.1,0.4-0.2l1.7-1.7c0.8,0.6,1.7,1.1,2.8,1.4l-0.7,2.2c-0.1,0.3,0.1,0.7,0.4,0.8H7c0.3,0,0.5-0.2,0.6-0.5l0.7-2.2
	c0.5,0.1,1,0.2,1.5,0.2c0.5,0,1-0.1,1.5-0.2l0.7,2.2c0.1,0.3,0.3,0.5,0.6,0.5c0.1,0,0.1,0,0.2,0c0.3-0.1,0.5-0.4,0.4-0.8l-0.7-2.2
	c1-0.4,2-0.9,2.8-1.4l1.7,1.7c0.1,0.1,0.3,0.2,0.4,0.2s0.3-0.1,0.4-0.2c0.2-0.2,0.2-0.6,0-0.9l-1.6-1.6C17.5,8.7,18.2,7.8,18.2,7.8
	L18.2,7.8z"/>
</svg>
