<?xml version="1.0" encoding="utf-8"?>
<!-- Generator: Adobe Illustrator 22.0.0, SVG Export Plug-In . SVG Version: 6.00 Build 0)  -->
<svg version="1.1" id="图层_1" xmlns="http://www.w3.org/2000/svg" xmlns:xlink="http://www.w3.org/1999/xlink" x="0px" y="0px"
	 viewBox="0 0 20 20" style="enable-background:new 0 0 20 20;" xml:space="preserve">
<style type="text/css">
	.st0{fill:#666666;}
</style>
<g>
	<path class="st0" d="M9.5,14.7c-4.9,0-7.8-4.3-7.9-4.5L1.4,10l0.1-0.3c0.1-0.2,2.8-5,7.9-5c5.4,0,7.9,4.8,8,5l0.1,0.3l-0.2,0.2
		C17.3,10.5,14.4,14.7,9.5,14.7z M2.6,10c0.7,0.9,3.2,3.8,6.9,3.8c3.8,0,6.3-2.9,6.9-3.8c-0.5-1-2.7-4.2-6.9-4.2
		C5.6,5.7,3.2,9,2.6,10z"/>
</g>
<path class="st0" d="M9.5,7.7c-1.1,0-2,0.9-2,2s0.9,2,2,2s2-0.9,2-2S10.6,7.7,9.5,7.7z"/>
</svg>
